<mxfile host="app.diagrams.net" modified="2023-04-23T01:46:02.089Z" agent="Mozilla/5.0 (Macintosh; Intel Mac OS X 10_15_7) AppleWebKit/537.36 (KHTML, like Gecko) Chrome/112.0.0.0 Safari/537.36" version="21.2.1" etag="MKvflJX4FqS89eSybPc6" type="github">
  <diagram name="Page-1" id="LKo6Wlg95eZy1F9RgOtB">
    <mxGraphModel>
      <root>
        <mxCell id="0" />
        <mxCell id="1" parent="0" />
      </root>
    </mxGraphModel>
  </diagram>
</mxfile>
